<svg width="181.22" height="43.971" fill="none" version="1.1" viewBox="0 0 181.22 43.971" xmlns="http://www.w3.org/2000/svg">
  <g fill="#fff">
    <path d="m1.1321 43.084h3.5421l0.0897 0.7141h-4.4836v-7.7078h0.8855z"/>
    <path d="m10.323 41.191h-3.9456c-0.0094 0.536 0.1693 1.0581 0.5045 1.4736 0.1847 0.188 0.4078 0.333 0.6537 0.425 0.2458 0.092 0.5085 0.1288 0.7698 0.1077 0.2732 0.0044 0.5454-0.0338 0.807-0.1134 0.2959-0.0999 0.5844-0.2211 0.8631-0.3627l0.2803 0.6575c-0.2921 0.1698-0.6 0.3103-0.9192 0.4194-0.3299 0.1044-0.6744 0.1541-1.02 0.1473-0.3887 0.0287-0.779-0.0273-1.1444-0.1641-0.3655-0.1369-0.6976-0.3515-0.9741-0.6293-0.5035-0.5855-0.7645-1.3447-0.7286-2.1197-0.0109-0.5117 0.0926-1.0193 0.3027-1.4849 0.1764-0.4256 0.4828-0.783 0.8743-1.0201 0.4063-0.2558 0.8778-0.3858 1.3563-0.3741 0.3397-0.0237 0.6798 0.041 0.9878 0.1878 0.3081 0.1468 0.5738 0.3709 0.772 0.651 0.3997 0.66 0.5948 1.4259 0.5604 2.199zm-3.9231-0.6121h3.0488c-0.127-1.1108-0.6202-1.6662-1.4796-1.6662-0.2087-0.0171-0.4186 0.0149-0.6131 0.0936-0.1944 0.0787-0.3682 0.2018-0.5078 0.3598-0.2736 0.3455-0.4307 0.7705-0.4483 1.2128z"/>
    <path d="m14.179 43.481 0.2803-0.6461c0.4525 0.2437 0.9557 0.3758 1.4683 0.3854 0.3385 0.0199 0.6758-0.0546 0.9752-0.2154 0.1098-0.0557 0.2018-0.1416 0.2652-0.2479 0.0635-0.1064 0.0959-0.2287 0.0935-0.3529 0-0.408-0.4484-0.7594-1.3451-1.0655-0.4589-0.141-0.8909-0.3595-1.2778-0.6461-0.1536-0.1131-0.2784-0.2615-0.3641-0.4329-0.0858-0.1715-0.13-0.3611-0.1291-0.5532-0.0098-0.2204 0.0353-0.4397 0.1313-0.6378 0.096-0.198 0.2397-0.3685 0.4179-0.4957 0.4326-0.304 0.9538-0.4518 1.4796-0.4194 0.3035 0.0064 0.6048 0.0521 0.8967 0.136 0.2854 0.0636 0.5558 0.1829 0.7959 0.3514l-0.2803 0.6121c-0.2253-0.1065-0.4574-0.1974-0.6949-0.272-0.24-0.072-0.4895-0.1064-0.7398-0.1021-0.2893-0.011-0.5749 0.0682-0.8182 0.2267-0.0985 0.0575-0.1803 0.1401-0.2374 0.2396-0.057 0.0994-0.0873 0.2122-0.0877 0.3272 0.0118 0.106 0.0484 0.2076 0.1069 0.2963s0.1371 0.162 0.2293 0.2138c0.2918 0.1782 0.6043 0.3191 0.9304 0.4194 1.2218 0.4534 1.8271 1.0315 1.8271 1.7456 0.0045 0.2207-0.0441 0.4393-0.1417 0.6367-0.0977 0.1975-0.2414 0.368-0.4188 0.4968-0.484 0.3106-1.0532 0.4575-1.6253 0.4193-0.3061-0.0101-0.6103-0.0518-0.9079-0.1246-0.293-0.0419-0.5749-0.1421-0.8295-0.2947z"/>
    <path d="m19.829 37.202c-0.0789 0.0031-0.1575-0.0102-0.231-0.0393-0.0735-0.029-0.1403-0.0732-0.1961-0.1296s-0.0995-0.1239-0.1282-0.1983c-0.0288-0.0743-0.042-0.1539-0.0388-0.2336 0.0171-0.147 0.0845-0.2833 0.1906-0.3854 0.0559-0.0559 0.1225-0.0999 0.1957-0.1291s0.1515-0.0431 0.2302-0.0409c0.0798-0.0029 0.1592 0.0118 0.2327 0.0431 0.0736 0.0314 0.1395 0.0785 0.1932 0.1382 0.0579 0.0553 0.1038 0.1221 0.1347 0.1963 0.0309 0.0741 0.0461 0.154 0.0447 0.2345 0.0027 0.0789-0.012 0.1576-0.043 0.2301s-0.0776 0.1372-0.1364 0.1893c-0.0611 0.0526-0.133 0.0911-0.2105 0.1127-0.0774 0.0215-0.1586 0.0256-0.2378 0.012zm0.4595 1.1335v5.4974h-0.863v-5.5315z"/>
    <path d="m23.068 38.391h0.9864l0.2914 0.6801h-1.2778v3.1738c-0.0123 0.2453 0.0546 0.488 0.1905 0.6915 0.0707 0.0852 0.1604 0.1523 0.2617 0.1957 0.1014 0.0433 0.2114 0.0617 0.3212 0.0537 0.1703-0.0033 0.3382-0.0419 0.4932-0.1134l0.2017 0.7028c-0.2591 0.1252-0.5423 0.191-0.8294 0.1927-0.2045 0.0128-0.4094-0.0167-0.6022-0.0869s-0.3693-0.1795-0.5187-0.3212c-0.2746-0.3114-0.4228-0.7163-0.4147-1.1335v-3.3552h-0.7847v-0.6801h0.7958v-1.4055l0.8856-0.2494z"/>
    <path d="m30.253 41.192h-3.9568c-0.0095 0.5361 0.1692 1.0582 0.5044 1.4736 0.1869 0.1883 0.412 0.3334 0.6596 0.4254 0.2477 0.0919 0.5121 0.1286 0.7751 0.1073 0.2695 0.0046 0.5381-0.0337 0.7959-0.1133 0.3003-0.0976 0.5927-0.2189 0.8743-0.3627l0.2802 0.6574c-0.2942 0.1657-0.6016 0.306-0.9191 0.4194-0.3303 0.1029-0.6745 0.1526-1.0201 0.1474-0.3902 0.0274-0.7818-0.0292-1.1489-0.1659-0.3671-0.1368-0.7014-0.3507-0.9808-0.6276-0.5035-0.5854-0.7644-1.3446-0.7285-2.1196-0.0109-0.5117 0.0925-1.0193 0.3026-1.4849 0.1822-0.422 0.4872-0.7778 0.8743-1.0202 0.4098-0.2572 0.8853-0.3873 1.3675-0.374 0.338-0.0228 0.6762 0.0423 0.9823 0.1891s0.5699 0.3705 0.7663 0.6496c0.4082 0.6568 0.6077 1.4242 0.5717 2.199zm-3.9344-0.612h3.0601c-0.1345-1.1335-0.6278-1.6663-1.4909-1.6663-0.2086-0.0162-0.4182 0.0162-0.6125 0.0949-0.1944 0.0786-0.3683 0.2012-0.5083 0.3585-0.2736 0.3456-0.4307 0.7705-0.4484 1.2129z"/>
    <path d="m38.996 42.563c-0.212 0.4234-0.5385 0.7772-0.9416 1.0202-0.4387 0.2456-0.9334 0.3707-1.4347 0.3627-0.4805 0.0109-0.9543-0.1147-1.3675-0.3627-0.3935-0.2462-0.7057-0.6053-0.8967-1.0315-0.2086-0.4781-0.3119-0.9964-0.3027-1.5189-0.0079-0.5138 0.1034-1.0224 0.3251-1.4849 0.2013-0.4271 0.5256-0.7827 0.9303-1.0201 0.427-0.2556 0.9163-0.3852 1.4123-0.3741 0.3576-0.0185 0.7148 0.043 1.0461 0.1801 0.3313 0.1372 0.6286 0.3466 0.8707 0.6134 0.4874 0.5928 0.7356 1.3498 0.6949 2.1196 0.0084 0.5188-0.107 1.032-0.3362 1.4962zm-1.0537 0c0.3246-0.4372 0.4944-0.9722 0.482-1.5188 0.0228-0.5569-0.1346-1.1061-0.4484-1.5643-0.1477-0.1958-0.34-0.3527-0.5605-0.4573s-0.4627-0.1538-0.706-0.1434c-0.2447-0.0085-0.488 0.0415-0.71 0.1459s-0.4165 0.2602-0.5679 0.4548c-0.3295 0.4304-0.4999 0.9636-0.482 1.5076-0.0278 0.5574 0.13 1.1082 0.4484 1.5642 0.1464 0.1973 0.3384 0.3552 0.5593 0.46 0.2208 0.1047 0.4637 0.1531 0.7073 0.1408 0.2411 0.0147 0.4822-0.0279 0.7041-0.1243 0.2219-0.0965 0.4184-0.2441 0.5737-0.4312z"/>
    <path d="m40.924 39.072h-0.8182v-0.6801h0.8295v-0.8614c-0.0224-0.4483 0.1215-0.8889 0.4035-1.2355 0.1435-0.1528 0.3179-0.2724 0.5114-0.3507 0.1935-0.0782 0.4014-0.1133 0.6095-0.1027 0.149-0.016 0.2993-0.016 0.4484 0 0.1289 0.0278 0.2534 0.0735 0.3701 0.136l-0.202 0.7254-0.2354-0.0793h-0.2578c-0.5156 0-0.7622 0.3174-0.7622 0.9408v0.8048h0.9976l0.2914 0.6801h-1.2666v4.7267h-0.8855z"/>
    <path d="m44.5 39.072h-0.819v-0.6801h0.83v-0.8615c-0.023-0.4482 0.121-0.8888 0.403-1.2355 0.144-0.1528 0.318-0.2724 0.512-0.3506 0.193-0.0783 0.401-0.1133 0.609-0.1028 0.149-0.0165 0.3-0.0165 0.449 0 0.128 0.0278 0.253 0.0736 0.369 0.1361l-0.201 0.7254c-0.074-0.0384-0.154-0.0652-0.236-0.0794h-0.258c-0.504 0-0.762 0.3174-0.762 0.9409v0.8047h0.998l0.291 0.6801h-1.289v4.7267h-0.885z"/>
    <path d="m48.21 37.201c-0.079 0.0031-0.158-0.0102-0.231-0.0393-0.074-0.029-0.141-0.0732-0.196-0.1296-0.056-0.0564-0.1-0.1239-0.129-0.1983-0.028-0.0743-0.042-0.1539-0.038-0.2336-3e-3 -0.1638 0.057-0.3222 0.168-0.4421 0.056-0.0559 0.122-0.0998 0.195-0.1291 0.074-0.0292 0.152-0.0431 0.231-0.0409 0.159 0.0029 0.312 0.0683 0.424 0.1825 0.113 0.1142 0.178 0.2682 0.181 0.4296 3e-3 0.079-0.012 0.1576-0.043 0.2301-0.031 0.0726-0.078 0.1372-0.136 0.1893-0.055 0.0585-0.121 0.1049-0.194 0.1361-0.074 0.0313-0.153 0.0467-0.232 0.0453zm0.459 1.1335v5.4974h-0.896v-5.5315z"/>
    <path d="m54.083 42.801 0.28 0.6461c-0.272 0.164-0.566 0.2862-0.874 0.3628-0.296 0.0817-0.601 0.1274-0.908 0.136-0.491 0.0113-0.976-0.1142-1.401-0.3627-0.394-0.2491-0.709-0.6071-0.908-1.0315-0.219-0.4751-0.326-0.9949-0.314-1.5189-8e-3 -0.5139 0.104-1.0224 0.325-1.4849 0.209-0.4256 0.536-0.7802 0.942-1.0202 0.427-0.2556 0.916-0.3852 1.412-0.374 0.308 0.0075 0.613 0.0571 0.908 0.1473 0.302 0.0679 0.59 0.1867 0.852 0.3514l-0.269 0.6348c-0.303-0.1247-0.549-0.2267-0.74-0.2834-0.253-0.0649-0.513-0.0954-0.773-0.0907-0.245-0.0084-0.488 0.0416-0.71 0.146-0.222 0.1043-0.417 0.2602-0.568 0.4548-0.325 0.433-0.495 0.9644-0.482 1.5075-0.028 0.5575 0.13 1.1083 0.448 1.5643 0.147 0.1965 0.339 0.3539 0.56 0.4586s0.463 0.1534 0.707 0.1421c0.272 0.0045 0.543-0.026 0.807-0.0906 0.245-0.072 0.482-0.1708 0.706-0.2948z"/>
    <path d="m56.09 37.201c-0.079 0.0031-0.158-0.0102-0.231-0.0393-0.074-0.029-0.141-0.0732-0.197-0.1296-0.055-0.0564-0.099-0.1239-0.128-0.1983-0.028-0.0743-0.042-0.1539-0.039-0.2336-2e-3 -0.1638 0.058-0.3222 0.169-0.4421 0.056-0.0559 0.122-0.0998 0.195-0.1291 0.074-0.0292 0.152-0.0431 0.231-0.0409 0.159 0.0029 0.311 0.0683 0.424 0.1825s0.178 0.2682 0.181 0.4296c3e-3 0.079-0.012 0.1576-0.043 0.2301-0.031 0.0726-0.078 0.1372-0.137 0.1893-0.054 0.0585-0.12 0.1049-0.194 0.1361-0.073 0.0313-0.152 0.0467-0.231 0.0453zm0.459 1.1335v5.4974h-0.897v-5.5315z"/>
    <path d="m62.692 41.191h-3.946c-9e-3 0.536 0.169 1.0581 0.504 1.4736 0.185 0.188 0.408 0.333 0.654 0.425s0.509 0.1288 0.77 0.1077c0.273 0.0044 0.545-0.0338 0.807-0.1134 0.296-0.0999 0.584-0.2211 0.863-0.3627l0.28 0.6575c-0.293 0.1677-0.6 0.3081-0.919 0.4194-0.33 0.1036-0.674 0.1533-1.02 0.1473-0.388 0.0287-0.779-0.0273-1.144-0.1641-0.366-0.1369-0.698-0.3515-0.974-0.6293-0.504-0.5855-0.765-1.3447-0.729-2.1197-0.011-0.5117 0.093-1.0193 0.303-1.4849 0.176-0.4256 0.483-0.783 0.874-1.0201 0.406-0.257 0.878-0.3871 1.356-0.3741 0.34-0.0237 0.68 0.041 0.988 0.1878s0.574 0.3709 0.772 0.651c0.4 0.66 0.595 1.4259 0.561 2.199zm-3.924-0.6121h3.049c-0.127-1.1108-0.62-1.6662-1.479-1.6662-0.209-0.0171-0.419 0.0149-0.613 0.0936-0.195 0.0787-0.369 0.2018-0.508 0.3598-0.274 0.3455-0.431 0.7705-0.449 1.2128z"/>
    <path d="m64.989 35.796v8.0025h-0.885v-7.9345z"/>
    <path d="m73.99 43.799h-0.538l-0.168-0.4194c-0.219 0.1786-0.465 0.3202-0.728 0.4194-0.236 0.0957-0.487 0.1457-0.74 0.1474-0.355 0.0191-0.709-0.0422-1.036-0.1795-0.328-0.1373-0.621-0.3471-0.859-0.614-0.483-0.5995-0.73-1.3583-0.695-2.131-7e-3 -0.5138 0.104-1.0224 0.326-1.4849 0.196-0.4232 0.512-0.7781 0.907-1.0201 0.418-0.2467 0.895-0.3722 1.379-0.3627 0.214 9e-4 0.427 0.0393 0.628 0.1133 0.219 0.0789 0.43 0.1815 0.628 0.3061v-2.6638l0.896-0.102zm-1.468-0.7821c0.214-0.0992 0.408-0.2375 0.572-0.4081v-3.2078c-0.349-0.3224-0.806-0.4969-1.278-0.4874-0.24-0.0128-0.478 0.0343-0.695 0.1371s-0.406 0.2582-0.549 0.4523c-0.308 0.4401-0.465 0.9692-0.449 1.5076-0.028 0.5628 0.126 1.1196 0.437 1.5869 0.142 0.1956 0.331 0.3521 0.548 0.4551s0.457 0.1492 0.697 0.1343c0.247-0.0114 0.49-0.069 0.717-0.17z"/>
    <path d="m80.256 41.191h-3.957c-9e-3 0.536 0.17 1.0581 0.505 1.4735 0.187 0.1883 0.412 0.3335 0.659 0.4254 0.248 0.092 0.512 0.1286 0.775 0.1074 0.27 0.0038 0.538-0.0345 0.796-0.1134 0.301-0.0976 0.593-0.2189 0.875-0.3627l0.28 0.6574c-0.294 0.1657-0.602 0.306-0.919 0.4194-0.334 0.103-0.682 0.1527-1.032 0.1474-0.388 0.0265-0.778-0.0305-1.143-0.1673-0.365-0.1367-0.697-0.3501-0.975-0.6262-0.504-0.5854-0.765-1.3446-0.729-2.1196-0.011-0.5117 0.093-1.0193 0.303-1.4849 0.18-0.4419 0.494-0.8148 0.897-1.0655 0.41-0.2572 0.885-0.3873 1.367-0.374 0.338-0.0228 0.676 0.0423 0.982 0.1891 0.307 0.1469 0.57 0.3705 0.767 0.6497 0.409 0.6721 0.601 1.4566 0.549 2.2443zm-3.934-0.6121h3.06c-0.135-1.1335-0.628-1.6663-1.491-1.6663-0.209-0.0162-0.418 0.0163-0.613 0.0949-0.194 0.0786-0.368 0.2013-0.508 0.3585-0.274 0.3456-0.431 0.7706-0.448 1.2129z"/>
    <path d="m81.276 43.481 0.28-0.6461c0.452 0.245 0.956 0.3772 1.469 0.3854 0.338 0.0171 0.675-0.0572 0.975-0.2153 0.108-0.0577 0.199-0.1442 0.262-0.25 0.063-0.1059 0.096-0.2271 0.097-0.3508 0-0.408-0.449-0.7594-1.345-1.0655-0.461-0.1361-0.894-0.3549-1.278-0.6461-0.159-0.1081-0.287-0.2555-0.374-0.4282-0.086-0.1726-0.127-0.3646-0.119-0.5579-0.01-0.2191 0.035-0.437 0.129-0.6347 0.093-0.1976 0.234-0.3689 0.409-0.4988 0.436-0.3041 0.961-0.4517 1.49-0.4194 0.3 0.0072 0.598 0.053 0.886 0.136 0.288 0.0671 0.561 0.1861 0.807 0.3514l-0.28 0.6121c-0.226-0.1046-0.458-0.1955-0.695-0.2721-0.241-0.0702-0.49-0.1046-0.74-0.102-0.293-0.0111-0.582 0.0679-0.83 0.2267-0.097 0.0581-0.177 0.1411-0.232 0.2406-0.055 0.0996-0.083 0.2121-0.081 0.3262 7e-3 0.1071 0.043 0.2103 0.101 0.2997 0.059 0.0894 0.14 0.1618 0.235 0.2104 0.29 0.1804 0.603 0.3214 0.93 0.4194 1.211 0.4534 1.827 1.0314 1.827 1.7455 3e-3 0.2216-0.048 0.4405-0.148 0.6379-0.099 0.1974-0.245 0.3675-0.423 0.4956-0.481 0.3091-1.046 0.4559-1.614 0.4194-0.307-0.0083-0.611-0.0501-0.908-0.1247-0.293-0.0419-0.575-0.142-0.83-0.2947z"/>
    <path d="m90.546 37.746v6.0529h-0.886v-7.7078h0.706l3.711 5.2141 0.459 0.7595v-5.9736h0.897v7.7078h-0.717l-3.879-5.5428z"/>
    <path d="m102 42.562c-0.208 0.426-0.535 0.7807-0.941 1.0202-0.438 0.2471-0.933 0.3722-1.435 0.3627-0.48 0.0097-0.954-0.1159-1.367-0.3627-0.391-0.2498-0.702-0.6079-0.897-1.0315-0.209-0.4782-0.312-0.9964-0.303-1.5189-8e-3 -0.5139 0.104-1.0224 0.325-1.4849 0.202-0.4271 0.526-0.7827 0.931-1.0202 0.427-0.2556 0.916-0.3852 1.412-0.374 0.358-0.0202 0.715 0.0406 1.047 0.1779 0.332 0.1372 0.629 0.3475 0.87 0.6155 0.487 0.5929 0.735 1.3498 0.695 2.1197 8e-3 0.5188-0.107 1.032-0.337 1.4962zm-1.053 0c0.324-0.4373 0.494-0.9722 0.482-1.5189 0.028-0.5574-0.13-1.1082-0.449-1.5642-0.147-0.1966-0.339-0.354-0.559-0.4586-0.221-0.1047-0.464-0.1535-0.707-0.1422-0.245-0.0084-0.488 0.0416-0.71 0.146-0.222 0.1043-0.417 0.2602-0.568 0.4548-0.325 0.4329-0.494 0.9644-0.482 1.5075-0.028 0.5575 0.13 1.1083 0.448 1.5643 0.147 0.1965 0.34 0.3539 0.56 0.4586 0.221 0.1047 0.464 0.1534 0.707 0.1421 0.241 0.0148 0.482-0.0278 0.704-0.1243 0.222-0.0964 0.418-0.2441 0.574-0.4311z"/>
    <path d="m104.78 38.391h0.953l0.291 0.6801h-1.277v3.1738c-0.013 0.2453 0.054 0.488 0.19 0.6915 0.07 0.086 0.16 0.1535 0.261 0.197 0.102 0.0434 0.212 0.0614 0.322 0.0524 0.17-0.0042 0.338-0.0428 0.493-0.1134l0.202 0.7028c-0.26 0.1238-0.542 0.1895-0.829 0.1927-0.205 0.0102-0.409-0.0205-0.601-0.0906-0.193-0.07-0.369-0.1779-0.52-0.3175-0.272-0.3126-0.416-0.7176-0.404-1.1335v-3.3552h-0.784v-0.6801h0.795v-1.4055l0.886-0.2494z"/>
    <path d="m107.9 39.309-0.257-0.6801c0.264-0.1656 0.557-0.2808 0.863-0.3401 0.304-0.0812 0.616-0.1268 0.93-0.136 0.387-0.0103 0.771 0.0712 1.121 0.238 0.307 0.1428 0.567 0.3708 0.751 0.6575 0.179 0.2842 0.273 0.615 0.269 0.9521v3.7972h-0.661l-0.113-0.5554c-0.223 0.2047-0.476 0.3729-0.751 0.4988-0.274 0.1293-0.571 0.1989-0.874 0.204-0.249 0.0179-0.5-0.0151-0.737-0.0968-0.237-0.0818-0.455-0.2108-0.642-0.3793-0.161-0.1602-0.287-0.3531-0.37-0.5659-0.083-0.2129-0.121-0.441-0.112-0.6696-0.012-0.2342 0.03-0.468 0.124-0.6826 0.093-0.2146 0.235-0.404 0.415-0.5529 0.41-0.3071 0.913-0.463 1.423-0.4421h1.401v-0.306c0.021-0.3444-0.078-0.6854-0.28-0.9635-0.116-0.1237-0.257-0.2196-0.414-0.2804-0.158-0.0608-0.326-0.0851-0.494-0.071-0.276-0.0061-0.552 0.0282-0.818 0.102-0.266 0.0643-0.526 0.1554-0.774 0.2721zm0.213 2.9244c-1e-3 0.2548 0.091 0.5011 0.258 0.6914 0.099 0.1019 0.218 0.181 0.349 0.2319 0.132 0.0509 0.273 0.0723 0.413 0.0629 0.295-0.0028 0.584-0.0808 0.841-0.2267 0.264-0.1544 0.499-0.3538 0.695-0.5895v-1.2468h-1.435c-0.151-0.0096-0.302 0.0138-0.443 0.0686-0.141 0.0547-0.269 0.1396-0.375 0.2488-0.1 0.0986-0.178 0.2169-0.23 0.3476s-0.077 0.271-0.073 0.4118z"/>
    <path d="m113.58 37.201c-0.079 0.0031-0.157-0.0102-0.231-0.0393-0.073-0.029-0.14-0.0732-0.196-0.1296s-0.099-0.1239-0.128-0.1983c-0.029-0.0743-0.042-0.1539-0.039-0.2336-2e-3 -0.1638 0.058-0.3222 0.168-0.4421 0.056-0.0559 0.123-0.0998 0.196-0.1291 0.073-0.0292 0.152-0.0431 0.23-0.0409 0.16 0.0029 0.312 0.0683 0.425 0.1825s0.178 0.2682 0.181 0.4296c2e-3 0.079-0.012 0.1576-0.043 0.2301-0.031 0.0726-0.078 0.1372-0.137 0.1893-0.054 0.0585-0.121 0.1049-0.194 0.1361-0.073 0.0313-0.152 0.0467-0.232 0.0453zm0.46 1.1335v5.4974h-0.897v-5.5315z"/>
    <path d="m116.54 40.012v3.7859h-0.885v-5.4975h0.527l0.28 0.8841c0.275-0.2286 0.572-0.4298 0.885-0.6007 0.275-0.1692 0.587-0.2666 0.908-0.2834l0.213 0.7141c-0.352 0.0173-0.695 0.1225-0.997 0.306-0.342 0.1829-0.656 0.4159-0.931 0.6915z"/>
    <path d="m124.03 41.191h-3.946c-9e-3 0.5361 0.17 1.0582 0.505 1.4736 0.185 0.188 0.408 0.333 0.654 0.425 0.245 0.0921 0.508 0.1288 0.769 0.1077 0.274 0.0044 0.546-0.0338 0.807-0.1133 0.296-0.1 0.585-0.2212 0.864-0.3628l0.28 0.6575c-0.292 0.1698-0.6 0.3103-0.919 0.4194-0.33 0.1044-0.675 0.1541-1.02 0.1473-0.389 0.0265-0.779-0.0305-1.144-0.1672-0.365-0.1368-0.697-0.3502-0.975-0.6262-0.503-0.5855-0.764-1.3446-0.728-2.1197-0.011-0.5117 0.092-1.0192 0.302-1.4849 0.157-0.4358 0.448-0.8093 0.83-1.0655 0.406-0.2557 0.877-0.3857 1.356-0.374 0.34-0.0237 0.68 0.041 0.988 0.1878s0.574 0.3709 0.772 0.651c0.429 0.6656 0.64 1.4506 0.605 2.2443zm-3.923-0.6121h3.049c-0.127-1.1108-0.62-1.6662-1.48-1.6662-0.209-0.0171-0.418 0.0149-0.613 0.0936-0.194 0.0787-0.368 0.2018-0.508 0.3598-0.273 0.3455-0.43 0.7705-0.448 1.2128z"/>
    <path d="m125.05 43.481 0.28-0.6461c0.453 0.2437 0.956 0.3758 1.469 0.3854 0.338 0.0199 0.675-0.0546 0.975-0.2154 0.11-0.0557 0.202-0.1416 0.265-0.2479 0.064-0.1064 0.096-0.2287 0.094-0.3529 0-0.408-0.449-0.7594-1.346-1.0655-0.458-0.141-0.89-0.3595-1.277-0.6461-0.154-0.1131-0.279-0.2615-0.364-0.4329-0.086-0.1715-0.13-0.3611-0.13-0.5532-7e-3 -0.2201 0.039-0.4387 0.134-0.6364 0.096-0.1977 0.239-0.3685 0.416-0.4971 0.432-0.304 0.953-0.4518 1.479-0.4194 0.304 0.0064 0.605 0.0521 0.897 0.136 0.285 0.0636 0.556 0.1829 0.796 0.3514l-0.28 0.6121c-0.226-0.1065-0.458-0.1974-0.695-0.272-0.24-0.072-0.49-0.1064-0.74-0.1021-0.289-0.011-0.575 0.0682-0.818 0.2267-0.099 0.0575-0.181 0.1401-0.238 0.2396-0.057 0.0994-0.087 0.2122-0.087 0.3272 0.011 0.106 0.048 0.2076 0.106 0.2963 0.059 0.0887 0.138 0.162 0.23 0.2138 0.292 0.1782 0.604 0.3191 0.93 0.4194 1.222 0.4534 1.827 1.0315 1.827 1.7456 5e-3 0.2207-0.044 0.4393-0.142 0.6367-0.097 0.1975-0.241 0.368-0.418 0.4968-0.484 0.3106-1.054 0.4575-1.626 0.4193-0.306-0.0101-0.61-0.0518-0.907-0.1246-0.293-0.0419-0.575-0.1421-0.83-0.2947z"/>
    <path d="m137.53 43.799h-0.538l-0.168-0.4194c-0.221 0.1762-0.466 0.3177-0.729 0.4194-0.236 0.0937-0.486 0.1436-0.74 0.1474-0.356 0.0192-0.711-0.042-1.041-0.1793-0.33-0.1372-0.625-0.3471-0.864-0.6142-0.48-0.6006-0.724-1.3596-0.684-2.131-0.011-0.5129 0.096-1.0215 0.314-1.4849 0.196-0.4232 0.512-0.7781 0.908-1.0201 0.421-0.2482 0.902-0.3737 1.39-0.3627 0.21 2e-3 0.419 0.0403 0.616 0.1133 0.223 0.079 0.437 0.1816 0.639 0.3061v-2.6638l0.897-0.102zm-1.48-0.7821c0.218-0.0989 0.415-0.2372 0.583-0.4081v-3.2078c-0.348-0.3224-0.806-0.4969-1.278-0.4874-0.239-0.0128-0.478 0.0343-0.695 0.1371s-0.405 0.2582-0.549 0.4523c-0.312 0.4378-0.47 0.9685-0.448 1.5076-0.031 0.5616 0.118 1.1182 0.426 1.5869 0.144 0.1958 0.335 0.3522 0.554 0.4551s0.46 0.149 0.701 0.1343c0.244-0.0112 0.484-0.0689 0.706-0.17z"/>
    <path d="m143.85 41.191h-3.946c-6e-3 0.5336 0.168 1.0534 0.493 1.4735 0.187 0.1883 0.412 0.3334 0.66 0.4254 0.247 0.092 0.512 0.1286 0.775 0.1074 0.269 0.0053 0.538-0.033 0.796-0.1134 0.3-0.0976 0.592-0.2189 0.874-0.3627l0.28 0.6574c-0.294 0.1657-0.601 0.306-0.919 0.4194-0.33 0.1029-0.674 0.1527-1.02 0.1474-0.389 0.0287-0.779-0.0273-1.144-0.1642-0.366-0.1368-0.698-0.3514-0.974-0.6293-0.509-0.5823-0.771-1.3437-0.729-2.1196-0.014-0.5108 0.085-1.0184 0.291-1.4849 0.183-0.4219 0.488-0.7778 0.875-1.0202 0.41-0.2554 0.885-0.3853 1.367-0.374 0.338-0.0239 0.677 0.0407 0.983 0.1876 0.307 0.147 0.57 0.3712 0.766 0.6512 0.408 0.6567 0.608 1.4241 0.572 2.199zm-3.924-0.6121h3.049c-0.134-1.1108-0.627-1.6663-1.479-1.6663-0.209-0.0153-0.418 0.0175-0.613 0.0961-0.194 0.0785-0.368 0.2007-0.508 0.3573-0.294 0.3383-0.471 0.764-0.505 1.2129z"/>
    <path d="m149.15 39.616h2.545l0.101 0.6688h-2.623v3.5592h-0.886v-7.7079h4.013l0.112 0.6688h-3.239z"/>
    <path d="m154.43 40.012v3.7859h-0.886v-5.4975h0.527l0.28 0.8841c0.274-0.2312 0.571-0.4325 0.886-0.6007 0.274-0.1692 0.586-0.2666 0.908-0.2834l0.213 0.7141c-0.353 0.0159-0.696 0.1211-0.998 0.306-0.344 0.1798-0.658 0.4132-0.93 0.6915z"/>
    <path d="m157.86 39.309-0.258-0.6801c0.261-0.1639 0.55-0.279 0.852-0.3401 0.308-0.0805 0.623-0.1261 0.941-0.136 0.387-0.0103 0.771 0.0712 1.121 0.238 0.307 0.1428 0.567 0.3708 0.751 0.6575 0.179 0.2842 0.273 0.615 0.269 0.9521v3.7972h-0.661l-0.112-0.5554c-0.224 0.2047-0.477 0.3729-0.751 0.4988-0.274 0.1293-0.572 0.1989-0.875 0.204-0.249 0.0179-0.5-0.0151-0.737-0.0968-0.236-0.0818-0.455-0.2108-0.641-0.3793-0.162-0.1602-0.288-0.3531-0.371-0.5659-0.083-0.2129-0.121-0.441-0.111-0.6696-0.013-0.2342 0.03-0.468 0.123-0.6826 0.094-0.2146 0.236-0.404 0.415-0.5529 0.411-0.3071 0.913-0.463 1.423-0.4421h1.424v-0.306c0.021-0.3444-0.078-0.6854-0.28-0.9635-0.116-0.1237-0.258-0.2196-0.415-0.2804s-0.326-0.0851-0.493-0.071c-0.277-0.0061-0.552 0.0282-0.819 0.102-0.273 0.0628-0.54 0.154-0.795 0.2721zm0.213 2.9244c-2e-3 0.2548 0.09 0.5011 0.257 0.6914 0.099 0.1019 0.218 0.181 0.35 0.2319 0.131 0.0509 0.272 0.0723 0.413 0.0629 0.294-0.0028 0.583-0.0808 0.84-0.2267 0.264-0.1544 0.499-0.3538 0.695-0.5895v-1.2468h-1.435c-0.152-0.0069-0.304 0.0176-0.447 0.0722-0.142 0.0546-0.272 0.138-0.382 0.2452-0.193 0.2041-0.298 0.4772-0.291 0.7594z"/>
    <path d="m164.02 39.9v3.8992h-0.886v-5.4975h0.661l0.146 0.7822c0.277-0.2847 0.604-0.5152 0.964-0.6801 0.348-0.1762 0.732-0.2693 1.121-0.2721 0.241-0.0184 0.483 0.0202 0.707 0.1127 0.223 0.0924 0.423 0.2362 0.582 0.4201 0.296 0.4054 0.443 0.9025 0.415 1.4055v3.7179h-0.886v-3.5932c0.023-0.333-0.055-0.6652-0.224-0.9522-0.086-0.117-0.2-0.2097-0.331-0.2692-0.132-0.0596-0.276-0.084-0.42-0.0708-0.322 0.0139-0.634 0.1115-0.908 0.2834-0.351 0.1831-0.669 0.4244-0.941 0.7141z"/>
    <path d="m172.99 42.801 0.28 0.6461c-0.272 0.164-0.567 0.2862-0.874 0.3628-0.296 0.0817-0.601 0.1274-0.908 0.136-0.491 0.0095-0.975-0.1158-1.401-0.3627-0.394-0.2491-0.709-0.6071-0.908-1.0315-0.213-0.4773-0.32-0.9956-0.314-1.5189-0.01-0.5153 0.106-1.0252 0.336-1.4849 0.202-0.4271 0.526-0.7827 0.931-1.0202 0.427-0.2556 0.916-0.3852 1.412-0.374 0.308 0.0075 0.613 0.0571 0.908 0.1473 0.301 0.0679 0.589 0.1867 0.852 0.3514l-0.269 0.6348c-0.242-0.1074-0.489-0.202-0.74-0.2834-0.253-0.0649-0.513-0.0954-0.773-0.0907-0.245-0.0084-0.488 0.0416-0.71 0.146-0.222 0.1043-0.417 0.2602-0.568 0.4548-0.325 0.433-0.495 0.9644-0.482 1.5075-0.023 0.5569 0.134 1.1061 0.448 1.5643 0.148 0.1958 0.34 0.3527 0.561 0.4573 0.22 0.1046 0.462 0.1538 0.706 0.1434 0.271 0.0059 0.543-0.0246 0.807-0.0907 0.245-0.0719 0.482-0.1707 0.706-0.2947z"/>
    <path d="m179.12 41.191h-3.889c-0.01 0.536 0.169 1.0581 0.504 1.4735 0.185 0.1874 0.408 0.3321 0.654 0.424 0.246 0.092 0.508 0.1291 0.77 0.1088 0.273 0.0044 0.545-0.0338 0.807-0.1134 0.296-0.0979 0.585-0.2192 0.863-0.3627l0.28 0.6575c-0.292 0.1698-0.6 0.3103-0.919 0.4193-0.33 0.1045-0.675 0.1542-1.02 0.1474-0.389 0.0265-0.778-0.0305-1.143-0.1673-0.366-0.1367-0.698-0.3501-0.976-0.6261-0.503-0.5855-0.764-1.3447-0.728-2.1197-0.011-0.5117 0.092-1.0193 0.302-1.4849 0.183-0.4219 0.488-0.7778 0.875-1.0201 0.406-0.2558 0.878-0.3858 1.356-0.3741 0.34-0.0237 0.68 0.041 0.988 0.1878s0.574 0.3709 0.772 0.651c0.384 0.6643 0.56 1.4312 0.504 2.199zm-3.923-0.6121h3.049c-0.127-1.1108-0.62-1.6662-1.48-1.6662-0.208-0.0163-0.418 0.0162-0.612 0.0948-0.195 0.0786-0.369 0.2013-0.509 0.3586-0.261 0.3497-0.406 0.7744-0.414 1.2128z"/>
    <path d="m4.6517 9.4991c1.8142-0.44151 3.6714-0.67723 5.5372-0.70278 2.1992-0.15547 4.3882 0.42182 6.2322 1.6436 1.3899 1.0882 2.0849 2.8867 2.0849 5.3955v13.307h-5.8063v-12.128c0-2.267-1.2666-3.4005-3.7998-3.4005-0.5849 0.0023-1.1676 0.0708-1.7374 0.204-0.4829 0.087-0.9509 0.2435-1.3899 0.4648v14.86h-5.7726v-18.136c1.4806-0.7013 3.0438-1.208 4.6517-1.5076z"/>
    <path d="m23.46 27.068c-1.6477-1.7683-2.4771-4.4093-2.4771-7.9345s0.8182-6.3136 2.4547-7.9345 4.1249-2.5051 7.454-2.5051c3.329 0 5.8286 0.86146 7.51 2.5618 1.6813 1.7002 2.522 4.3526 2.522 7.9345 0 3.5818-0.8743 6.0642-2.6005 7.8665-1.7262 1.8022-4.2033 2.6977-7.4315 2.6977s-5.7839-0.9068-7.4316-2.6864zm10.648-3.5025c0.8174-1.3122 1.2093-2.8498 1.1209-4.398 0.1404-1.5881-0.2334-3.1793-1.0648-4.534-0.398-0.4654-0.8984-0.8299-1.461-1.0641-0.5627-0.2343-1.1717-0.3318-1.7784-0.2848-0.6152-0.0578-1.2351 0.0392-1.8042 0.2825-0.5692 0.2432-1.0699 0.6252-1.4576 1.1117-0.779 1.374-1.1233 2.9563-0.9864 4.534-0.1141 1.5551 0.2416 3.1086 1.02 4.4547 0.3691 0.4937 0.8553 0.8855 1.4136 1.1391 0.5583 0.2535 1.1708 0.3608 1.781 0.3118 0.6219 0.034 1.2423-0.0903 1.8043-0.3616s1.0478-0.6809 1.4126-1.1913z"/>
    <path d="m55.294 24.246c-0.369 0.1084-0.743 0.1955-1.121 0.2607-0.633 0.1145-1.274 0.1752-1.917 0.1814-0.491 0.0622-0.989-0.0101-1.443-0.2096-0.453-0.1994-0.845-0.5185-1.135-0.9239-0.465-0.9045-0.686-1.9173-0.639-2.9358v-5.9395h6.927v-4.8174h-6.927v-7.3678l-5.761 0.92947v17.309c-0.011 1.2229 0.113 2.4433 0.37 3.6385 0.221 1.0194 0.678 1.9711 1.333 2.7771 0.657 0.8094 1.505 1.4373 2.466 1.8249 1.251 0.4683 2.579 0.6877 3.912 0.6461 1.055 0.0219 2.109-0.0847 3.139-0.3174 0.792-0.1847 1.568-0.4349 2.32-0.7481v-0.1247c-0.86-1.2358-1.386-2.6777-1.524-4.1826z"/>
    <path d="m73.441 10.258c1.749 1.0088 2.634 2.8111 2.634 5.4181v9.3627c4e-3 0.7766-0.227 1.5359-0.661 2.1761-0.435 0.6402-1.053 1.1308-1.771 1.4058-2.235 0.8567-4.619 1.2425-7.006 1.1335-5.724 0-8.59-2.267-8.597-6.801-0.05-0.8258 0.08-1.6524 0.381-2.422 0.3-0.7696 0.763-1.4634 1.356-2.0327 1.494-1.1483 3.353-1.701 5.224-1.5529 0.968 0.0023 1.932 0.128 2.869 0.3741 0.863 0.2136 1.695 0.5373 2.477 0.9635v-1.3376c0-2.267-1.446-3.4005-4.338-3.4005-1.167 0.0119-2.326 0.2148-3.429 0.6008-1.013 0.3196-1.962 0.8186-2.803 1.4735v-5.1461c0.99-0.58276 2.07-0.99278 3.195-1.2128 1.515-0.34927 3.064-0.52043 4.618-0.51008 2.047-0.02585 4.065 0.49411 5.851 1.5076zm-3.867 15.087c0.241-0.0659 0.45-0.2159 0.592-0.4234 0.142-0.2076 0.206-0.4592 0.181-0.7101v-3.0605c-0.962-0.3163-1.969-0.4733-2.981-0.4647-0.957-0.0678-1.914 0.1281-2.769 0.5667-0.289 0.191-0.523 0.4567-0.676 0.7696-0.154 0.3128-0.222 0.6615-0.198 1.01-8e-3 0.3577 0.071 0.7119 0.229 1.0319s0.391 0.5961 0.679 0.8044c0.614 0.4826 1.374 0.7349 2.152 0.7141 0.937 0.058 1.877-0.0222 2.791-0.238z"/>
    <path d="m79.404 29.142v-19.53h5.762v19.53z"/>
    <path d="m122.07 20.766h-12.969c0.482 2.7431 2.309 4.1147 5.459 4.1147 0.948 3e-4 1.892-0.1372 2.802-0.4081 0.994-0.3253 1.971-0.7037 2.925-1.1335v5.0101c-2.266 0.9123-4.689 1.363-7.129 1.3262-1.796 0.0515-3.577-0.3539-5.178-1.1789-1.482-0.8049-2.695-2.0355-3.486-3.5365-0.853-1.6813-1.277-3.5516-1.233-5.4408 0-3.4459 0.844-6.1134 2.533-8.0025 0.927-0.9752 2.053-1.7348 3.3-2.226 1.246-0.49128 2.583-0.70253 3.919-0.61909 6.12 0 9.139 4.0315 9.057 12.094zm-12.969-3.7178h7.241c-0.066-1.096-0.457-2.1465-1.121-3.0152-0.326-0.3158-0.714-0.5588-1.139-0.7131-0.425-0.1542-0.877-0.2164-1.327-0.1823-2.048 0-3.266 1.3035-3.654 3.9106z"/>
    <path d="m127.1 29.414c-1.055-0.3068-2.089-0.6855-3.093-1.1335v-5.1234c1.87 1.5133 4.184 2.3547 6.579 2.3917 0.67 0.0456 1.337-0.1123 1.917-0.4534 0.19-0.1424 0.343-0.329 0.447-0.5441 0.103-0.2151 0.154-0.4523 0.147-0.6914-2e-3 -0.2955-0.097-0.5827-0.27-0.8208-0.173-0.238-0.416-0.4149-0.694-0.5054-1.003-0.4012-2.038-0.7159-3.093-0.9409-1.386-0.2559-2.67-0.909-3.699-1.8816-0.51-0.5475-0.903-1.1955-1.154-1.9035-0.25-0.708-0.354-1.4607-0.304-2.2111-0.064-1.3578 0.331-2.6973 1.121-3.7972 0.761-0.9789 1.773-1.7277 2.926-2.165 1.165-0.4574 2.404-0.69186 3.654-0.69144 1.272-0.03418 2.543 0.10691 3.777 0.41939 1.015 0.28429 1.985 0.71163 2.881 1.2695v4.534c-1.323-0.7557-2.343-1.2771-3.06-1.5642-0.8-0.3314-1.658-0.4934-2.522-0.4761-0.737-0.0455-1.473 0.1111-2.13 0.4534-0.216 0.1304-0.395 0.3167-0.517 0.5397-0.122 0.2231-0.183 0.4749-0.178 0.7298-0.018 0.2878 0.045 0.5749 0.182 0.8278s0.342 0.4612 0.592 0.6004c0.785 0.4084 1.617 0.7168 2.477 0.9182 1.043 0.2597 2.066 0.5968 3.06 1.0088 0.808 0.368 1.504 0.9471 2.018 1.6776 0.658 1.0035 0.969 2.1992 0.885 3.4005 0.044 0.9704-0.165 1.9353-0.606 2.7985-0.441 0.8633-1.097 1.5945-1.905 2.1209-1.865 1.0813-3.993 1.6114-6.142 1.5302-1.108 0.0391-2.215-0.0676-3.296-0.3174z"/>
    <path d="m154.89 14.078h-2.88v-4.534h2.914v-0.4194c0-2.9773 0.68-5.0516 2.04-6.2229 1.546-1.2388 3.489-1.86 5.459-1.7456 0.454 0.00148 0.908 0.03938 1.356 0.11335 0.41 0.06021 0.814 0.15115 1.211 0.27204v5.2028c-0.25-0.26183-0.537-0.48354-0.852-0.65743-0.354-0.15518-0.736-0.22875-1.121-0.21536-0.622-0.03118-1.232 0.17977-1.704 0.58942-0.231 0.27503-0.405 0.59457-0.511 0.93938-0.106 0.3448-0.142 0.70773-0.106 1.0669v1.1335h4.271v4.534h-4.304v15.348h-5.784z"/>
    <path d="m167.96 11.687c0.624-0.4734 1.31-0.8551 2.04-1.1335 1.058-0.4432 2.149-0.80319 3.262-1.0768 1.135-0.29468 2.302-0.44696 3.475-0.45341 1.559-0.1508 3.126 0.19391 4.483 0.98613v4.2847c-1.478-0.2807-2.98-0.4022-4.483-0.3628-0.998-0.0156-1.995 0.0526-2.982 0.2041v15.348h-5.795z"/>
    <path d="m146.45 29.154c1.814 0 3.284-1.4869 3.284-3.3211s-1.47-3.3212-3.284-3.3212-3.284 1.487-3.284 3.3212 1.47 3.3211 3.284 3.3211z"/>
    <path d="m97.596 8.751c-1.168 0.00576-2.332 0.15805-3.463 0.4534-1.116 0.28682-2.207 0.66593-3.262 1.1335-0.725 0.2811-1.408 0.6626-2.029 1.1335v17.671h5.773v-15.302c0.987-0.1416 1.984-0.206 2.981-0.1927 1.397-0.0559 2.795 0.043 4.17 0.2947 0.426-1.3712 1.086-2.6563 1.95-3.7972-1.946-0.8155-4.016-1.2871-6.12-1.3942z"/>
    <path d="m82.307 6.6423c1.814 0 3.285-1.4869 3.285-3.3212 0-1.8342-1.471-3.3212-3.285-3.3212s-3.284 1.4869-3.284 3.3212c0 1.8342 1.47 3.3212 3.284 3.3212z"/>
  </g>
</svg>
